<?xml version="1.0" encoding="UTF-8"?>
<svg xmlns="http://www.w3.org/2000/svg" xmlns:xlink="http://www.w3.org/1999/xlink" viewBox="0 0 55 55" width="55px" height="55px">
<g id="surface199443632">
<path style=" stroke:none;fill-rule:nonzero;fill:rgb(87.450981%,64.313728%,61.176473%);fill-opacity:1;" d="M 18.328125 5.5 C 11.253906 5.5 5.5 11.261719 5.5 18.335938 L 5.5 36.671875 C 5.5 43.746094 11.261719 49.5 18.335938 49.5 L 36.671875 49.5 C 43.746094 49.5 49.5 43.738281 49.5 36.664062 L 49.5 18.328125 C 49.5 11.253906 43.738281 5.5 36.664062 5.5 Z M 40.332031 12.832031 C 41.34375 12.832031 42.167969 13.65625 42.167969 14.667969 C 42.167969 15.679688 41.34375 16.5 40.332031 16.5 C 39.320312 16.5 38.5 15.679688 38.5 14.667969 C 38.5 13.65625 39.320312 12.832031 40.332031 12.832031 Z M 27.5 16.5 C 33.566406 16.5 38.5 21.433594 38.5 27.5 C 38.5 33.566406 33.566406 38.5 27.5 38.5 C 21.433594 38.5 16.5 33.566406 16.5 27.5 C 16.5 21.433594 21.433594 16.5 27.5 16.5 Z M 27.5 20.167969 C 23.449219 20.167969 20.167969 23.449219 20.167969 27.5 C 20.167969 31.550781 23.449219 34.832031 27.5 34.832031 C 31.550781 34.832031 34.832031 31.550781 34.832031 27.5 C 34.832031 23.449219 31.550781 20.167969 27.5 20.167969 Z M 27.5 20.167969 "/>
</g>
</svg>
